<?xml version="1.0" encoding="UTF-8"?>
<svg width="763px" height="111px" viewBox="0 0 763 111" version="1.1" xmlns="http://www.w3.org/2000/svg" xmlns:xlink="http://www.w3.org/1999/xlink">
    <!-- Generator: Sketch 63.1 (92452) - https://sketch.com -->
    <title>Group</title>
    <desc>Created with Sketch.</desc>
    <defs>
        <radialGradient cx="52.7782697%" cy="0%" fx="52.7782697%" fy="0%" r="100%" gradientTransform="translate(0.527783,0.000000),scale(0.147095,1.000000),rotate(90.000000),scale(1.000000,4.824120),translate(-0.527783,-0.000000)" id="radialGradient-1">
            <stop stop-color="#0A7573" offset="0%"></stop>
            <stop stop-color="#17B978" offset="100%"></stop>
        </radialGradient>
    </defs>
    <g id="Page-1" stroke="none" stroke-width="1" fill="none" fill-rule="evenodd">
        <g id="Group">
            <path d="M746.215087,36.6424717 C752.904824,41.7115668 757.128266,46.3321472 758.885412,50.5042129 C761.220624,56.0488015 762.83993,65.3574417 762.819489,67.6239725 C762.792527,70.613652 761.955663,73.3397893 761.605711,74.0327715 C760.990454,75.2511162 761.5596,71.3603125 761.175426,68.325879 C760.886521,66.0439471 760.332853,63.7526754 760.240089,64.3780685 C759.320654,70.5766805 755.576089,74.3303873 755.310457,74.5941674 C754.46395,75.4347726 761.121748,63.178517 756.249692,53.1472152 C753.001655,46.4596808 748.918424,42.2151474 744,40.4136152 L746.215087,36.6424717 Z" id="Path-2" fill="#CB3B3B"></path>
            <path d="M684.49566,0.751333539 C693.945023,3.61677902 708.634995,-0.0565587344 711.050869,0.751333539 C716.987038,2.73644815 717.783901,9.39945435 722.819597,11.9016497 C729.627647,15.284513 740.206753,14.6153622 744.381447,17.8504762 C758.337341,28.665381 750.67125,37.4287059 744.381447,40.5471874 C738.091644,43.6656689 708.863438,46.2411928 692.836675,44.2300841 C686.115988,43.3867428 679.9902,37.925673 675.12879,38.084048 C670.992484,38.2188004 668.109607,43.1971973 662.934351,50.2457392 C657.771013,57.27805 644.252971,80.4421023 632.643241,89.2140822 C612.187964,104.669505 576.228829,108.320697 532.657343,108.731414 C300.720582,110.917713 217.466683,111.294552 101.183326,108.731414 C97.1717623,108.64299 67.5159201,107.360756 47.8119218,96.7771405 C18.9495392,81.2742789 -1.84610231,54.3760939 1.2073109,52.5263854 C6.72678339,49.182778 33.3548759,82.0404859 75.7602835,81.9560853 C101.467244,81.90492 114.331716,70.7792956 121.063221,66.8560602 C124.898485,64.6208029 141.600632,46.5124518 166.124173,36.9806821 C171.803385,34.7732952 189.867037,29.2378762 223.436892,29.2378762 C257.686497,29.2378762 405.041889,25.2679512 483.105509,29.2378762 C511.030925,30.658023 524.628152,32.6165064 532.657343,36.9806821 C562.696964,53.3083793 590.818077,81.3305367 615.351231,61.0035499 C641.821663,39.0714279 643.492923,27.7645077 652.202188,14.0289381 C658.935474,3.40972671 675.046297,-2.11411194 684.49566,0.751333539 Z M482.147826,40.9826087 C477.13913,40.9826087 477.13913,40.9826087 472.965217,43.9043478 C468.972779,46.7988658 468.972779,46.7988658 467.176181,51.3163968 L467.016835,51.729 L467.017391,42.5478261 L462.843478,42.5478261 L462.843478,103.695652 L467.017391,103.695652 L467.017391,77.5043478 C469.208696,82.2 469.208696,82.2 473.486957,84.9130435 C477.765217,87.7304348 477.765217,87.7304348 482.878261,87.7304348 C491.53913,87.7304348 491.53913,87.7304348 496.652174,81.4695652 C501.869565,75.2086957 501.869565,75.2086957 501.869565,64.773913 C501.869565,54.026087 501.869565,54.026087 496.443478,47.4521739 C491.121739,40.9826087 491.121739,40.9826087 482.147826,40.9826087 Z M230.006832,43.9217391 L225.832919,43.9217391 L225.832919,56.5478261 L219.467702,56.5478261 L219.467702,59.7826087 L225.832919,59.7826087 L225.832919,93.0695652 C225.832919,97.0347826 225.832919,97.0347826 228.232919,99.7478261 C230.737267,102.565217 230.737267,102.565217 234.180745,102.565217 C235.343478,102.565217 235.343478,102.565217 237.405945,101.84543 L237.728571,101.730435 L237.728571,98.7043478 C236.476398,99.4347826 236.476398,99.4347826 234.493789,99.4347826 C232.615528,99.4347826 232.615528,99.4347826 231.363354,97.5565217 C230.097267,95.8034783 230.097267,95.8034783 230.012861,93.4141449 L230.006832,93.0695652 L230.006832,59.7826087 L236.059006,59.7826087 L236.059006,56.5478261 L230.006832,56.5478261 L230.006832,43.9217391 Z M383.293789,43.9217391 L379.119876,43.9217391 L379.119876,56.5478261 L372.754658,56.5478261 L372.754658,59.7826087 L379.119876,59.7826087 L379.119876,93.0695652 C379.119876,97.0347826 379.119876,97.0347826 381.519876,99.7478261 C384.024224,102.565217 384.024224,102.565217 387.467702,102.565217 C388.630435,102.565217 388.630435,102.565217 390.692902,101.84543 L391.015528,101.730435 L391.015528,98.7043478 C389.763354,99.4347826 389.763354,99.4347826 387.780745,99.4347826 C385.902484,99.4347826 385.902484,99.4347826 384.650311,97.5565217 C383.384224,95.8034783 383.384224,95.8034783 383.299818,93.4141449 L383.293789,93.0695652 L383.293789,59.7826087 L389.345963,59.7826087 L389.345963,56.5478261 L383.293789,56.5478261 L383.293789,43.9217391 Z M176.282609,39.1217391 L172.108696,39.1217391 L172.108696,66.1478261 C170.230435,61.1391304 170.230435,61.1391304 166.056522,58.0086957 C161.778261,54.9826087 161.778261,54.9826087 156.665217,54.9826087 C148.630435,54.9826087 148.630435,54.9826087 142.891304,61.973913 C137.152174,68.9652174 137.152174,68.9652174 137.152174,78.773913 C137.152174,88.4782609 137.152174,88.4782609 142.891304,95.2608696 C148.630435,102.147826 148.630435,102.147826 156.665217,102.147826 C161.986957,102.147826 161.986957,102.147826 166.16087,99.3304348 C170.253119,96.6355388 170.253119,96.6355388 171.958585,92.3176297 L172.108696,91.9217391 L172.108696,101 L176.282609,101 L176.282609,39.1217391 Z M156.665217,58.6347826 C163.030435,58.6347826 163.030435,58.6347826 167.621739,64.5826087 C172.108696,70.426087 172.108696,70.426087 172.108696,78.773913 C172.108696,87.1217391 172.108696,87.1217391 167.621739,93.0695652 C163.030435,99.0173913 163.030435,99.0173913 156.665217,99.0173913 C150.3,99.0173913 150.3,99.0173913 145.813043,93.0695652 C141.326087,87.1217391 141.326087,87.1217391 141.326087,78.773913 C141.326087,70.426087 141.326087,70.426087 145.813043,64.5826087 C150.3,58.6347826 150.3,58.6347826 156.665217,58.6347826 Z M198.965217,46.8173913 C192.286957,46.8173913 192.286957,46.8173913 187.486957,49.9478261 C182.947826,52.973913 182.947826,52.973913 182.796522,57.2675942 L182.791304,57.5652174 L182.791304,60.2782609 L186.756522,60.2782609 L186.756522,57.9826087 C186.756522,54.7478261 186.756522,54.7478261 190.304348,52.3478261 C193.956522,50.0521739 193.956522,50.0521739 198.965217,50.0521739 C204.286957,50.0521739 204.286957,50.0521739 207.93913,52.4521739 C211.556522,54.763285 211.556522,54.763285 211.690499,58.0420111 L211.695652,58.2956522 L211.695652,62.2608696 C211.695652,64.2434783 211.695652,64.2434783 207.417391,65.7043478 C203.243478,67.1652174 203.243478,67.1652174 196.669565,67.7913043 C189.886957,68.4173913 189.886957,68.4173913 185.4,72.173913 C180.808696,75.9304348 180.808696,75.9304348 180.808696,80.9391304 C180.808696,86.1565217 180.808696,86.1565217 185.504348,89.9130435 C190.095652,93.5652174 190.095652,93.5652174 196.669565,93.5652174 C201.991304,93.5652174 201.991304,93.5652174 206.06087,91.373913 C210.130435,89.1826087 210.130435,89.1826087 211.382609,85.6347826 C211.382609,88.5565217 211.382609,88.5565217 213.052174,90.6434783 C214.826087,92.7304348 214.826087,92.7304348 217.226087,92.7304348 C219.426087,92.7304348 219.426087,92.7304348 220.924638,92.1166667 L221.191304,92 L221.191304,90.0173913 C220.982609,90.226087 220.982609,90.226087 220.565217,90.3304348 C220.147826,90.4347826 220.147826,90.4347826 219.626087,90.4347826 C217.956522,90.4347826 217.956522,90.4347826 216.808696,88.5565217 C215.742857,86.8124224 215.742857,86.8124224 215.666726,84.4385093 L215.66087,84.0695652 L215.66087,57.1478261 C215.66087,52.8695652 215.66087,52.8695652 210.756522,49.8434783 C205.852174,46.8173913 205.852174,46.8173913 198.965217,46.8173913 Z M264.003727,46.8173913 C257.325466,46.8173913 257.325466,46.8173913 252.525466,49.9478261 C247.986335,52.973913 247.986335,52.973913 247.835031,57.2675942 L247.829814,57.5652174 L247.829814,60.2782609 L251.795031,60.2782609 L251.795031,57.9826087 C251.795031,54.7478261 251.795031,54.7478261 255.342857,52.3478261 C258.995031,50.0521739 258.995031,50.0521739 264.003727,50.0521739 C269.325466,50.0521739 269.325466,50.0521739 272.97764,52.4521739 C276.595031,54.763285 276.595031,54.763285 276.729009,58.0420111 L276.734161,58.2956522 L276.734161,62.2608696 C276.734161,64.2434783 276.734161,64.2434783 272.455901,65.7043478 C268.281988,67.1652174 268.281988,67.1652174 261.708075,67.7913043 C254.925466,68.4173913 254.925466,68.4173913 250.438509,72.173913 C245.847205,75.9304348 245.847205,75.9304348 245.847205,80.9391304 C245.847205,86.1565217 245.847205,86.1565217 250.542857,89.9130435 C255.134161,93.5652174 255.134161,93.5652174 261.708075,93.5652174 C267.029814,93.5652174 267.029814,93.5652174 271.099379,91.373913 C275.168944,89.1826087 275.168944,89.1826087 276.421118,85.6347826 C276.421118,88.5565217 276.421118,88.5565217 278.090683,90.6434783 C279.864596,92.7304348 279.864596,92.7304348 282.264596,92.7304348 C284.464596,92.7304348 284.464596,92.7304348 285.963147,92.1166667 L286.229814,92 L286.229814,90.0173913 C286.021118,90.226087 286.021118,90.226087 285.603727,90.3304348 C285.186335,90.4347826 285.186335,90.4347826 284.664596,90.4347826 C282.995031,90.4347826 282.995031,90.4347826 281.847205,88.5565217 C280.781366,86.8124224 280.781366,86.8124224 280.705235,84.4385093 L280.699379,84.0695652 L280.699379,57.1478261 C280.699379,52.8695652 280.699379,52.8695652 275.795031,49.8434783 C270.890683,46.8173913 270.890683,46.8173913 264.003727,46.8173913 Z M352.281988,45.9826087 C343.308075,45.9826087 343.308075,45.9826087 337.881988,52.4521739 C332.455901,59.026087 332.455901,59.026087 332.455901,69.773913 C332.455901,80.5217391 332.455901,80.5217391 337.881988,87.0956522 C343.308075,93.5652174 343.308075,93.5652174 352.281988,93.5652174 C359.795031,93.5652174 359.795031,93.5652174 365.429814,89.4956522 C370.882829,85.5573633 370.882829,85.5573633 372.035976,79.6645885 L372.108075,79.2695652 L367.934161,79.2695652 C366.264596,83.9652174 366.264596,83.9652174 361.881988,86.8869565 C357.603727,89.7043478 357.603727,89.7043478 352.281988,89.7043478 C345.186335,89.7043478 345.186335,89.7043478 340.908075,84.2782609 C336.759458,79.0166008 336.759458,79.0166008 336.633742,70.320757 L336.629814,69.773913 L372.108075,69.773913 L372.108075,67.7913043 C372.108075,57.8782609 372.108075,57.8782609 366.681988,51.9304348 C361.255901,45.9826087 361.255901,45.9826087 352.281988,45.9826087 Z M525.722981,46.4 C518.001242,46.4 518.001242,46.4 513.722981,49.426087 C509.44472,52.4521739 509.44472,52.4521739 509.44472,57.9826087 C509.44472,62.8869565 509.44472,62.8869565 513.722981,66.226087 C517.896894,69.5652174 517.896894,69.5652174 524.992547,70.1913043 C531.670807,70.8173913 531.670807,70.8173913 535.636025,73.2173913 C539.601242,75.7217391 539.601242,75.7217391 539.601242,79.2695652 C539.601242,83.9652174 539.601242,83.9652174 535.84472,86.8869565 C531.983851,89.7043478 531.983851,89.7043478 525.722981,89.7043478 C520.296894,89.7043478 520.296894,89.7043478 516.436025,86.573913 C512.713043,83.4546584 512.713043,83.4546584 512.58008,79.1710736 L512.575155,78.8521739 L508.714286,78.8521739 C508.714286,84.8 508.714286,84.8 513.722981,88.973913 C518.627329,93.1478261 518.627329,93.1478261 525.722981,93.1478261 C533.862112,93.1478261 533.862112,93.1478261 538.662112,89.6 C543.56646,86.0521739 543.56646,86.0521739 543.56646,80.1043478 C543.56646,74.7826087 543.56646,74.7826087 539.392547,71.2347826 C535.114286,67.6869565 535.114286,67.6869565 528.122981,67.0608696 C521.44472,66.4347826 521.44472,66.4347826 517.479503,64.0347826 C513.409938,61.5304348 513.409938,61.5304348 513.409938,57.9826087 C513.409938,54.226087 513.409938,54.226087 516.749068,51.9304348 C520.088199,49.6347826 520.088199,49.6347826 525.722981,49.6347826 C530.836025,49.6347826 530.836025,49.6347826 534.070807,51.9304348 C537.164947,54.126276 537.164947,54.126276 537.967775,57.9451303 L538.036025,58.2956522 L542.001242,58.2956522 C542.001242,52.8695652 542.001242,52.8695652 537.514286,49.6347826 C533.131677,46.4 533.131677,46.4 525.722981,46.4 Z M307.621118,46.4 C299.899379,46.4 299.899379,46.4 295.621118,49.426087 C291.342857,52.4521739 291.342857,52.4521739 291.342857,57.9826087 C291.342857,62.8869565 291.342857,62.8869565 295.621118,66.226087 C299.795031,69.5652174 299.795031,69.5652174 306.890683,70.1913043 C313.568944,70.8173913 313.568944,70.8173913 317.534161,73.2173913 C321.499379,75.7217391 321.499379,75.7217391 321.499379,79.2695652 C321.499379,83.9652174 321.499379,83.9652174 317.742857,86.8869565 C313.881988,89.7043478 313.881988,89.7043478 307.621118,89.7043478 C302.195031,89.7043478 302.195031,89.7043478 298.334161,86.573913 C294.61118,83.4546584 294.61118,83.4546584 294.478217,79.1710736 L294.473292,78.8521739 L290.612422,78.8521739 C290.612422,84.8 290.612422,84.8 295.621118,88.973913 C300.525466,93.1478261 300.525466,93.1478261 307.621118,93.1478261 C315.760248,93.1478261 315.760248,93.1478261 320.560248,89.6 C325.464596,86.0521739 325.464596,86.0521739 325.464596,80.1043478 C325.464596,74.7826087 325.464596,74.7826087 321.290683,71.2347826 C317.012422,67.6869565 317.012422,67.6869565 310.021118,67.0608696 C303.342857,66.4347826 303.342857,66.4347826 299.37764,64.0347826 C295.308075,61.5304348 295.308075,61.5304348 295.308075,57.9826087 C295.308075,54.226087 295.308075,54.226087 298.647205,51.9304348 C301.986335,49.6347826 301.986335,49.6347826 307.621118,49.6347826 C312.734161,49.6347826 312.734161,49.6347826 315.968944,51.9304348 C319.063084,54.126276 319.063084,54.126276 319.865911,57.9451303 L319.934161,58.2956522 L323.899379,58.2956522 C323.899379,52.8695652 323.899379,52.8695652 319.412422,49.6347826 C315.029814,46.4 315.029814,46.4 307.621118,46.4 Z M433.360248,45.9826087 C423.864596,45.9826087 423.864596,45.9826087 418.229814,52.4521739 C412.490683,59.026087 412.490683,59.026087 412.490683,69.773913 C412.490683,80.2086957 412.490683,80.2086957 418.229814,86.4695652 C423.864596,92.7304348 423.864596,92.7304348 433.360248,92.7304348 C442.751553,92.7304348 442.751553,92.7304348 448.490683,86.4695652 C454.125466,80.2086957 454.125466,80.2086957 454.125466,69.773913 C454.125466,59.026087 454.125466,59.026087 448.490683,52.4521739 C442.751553,45.9826087 442.751553,45.9826087 433.360248,45.9826087 Z M211.695652,67.4782609 L211.695652,77.7043478 C210.756522,83.2347826 210.756522,83.2347826 206.478261,86.7826087 C202.2,90.4347826 202.2,90.4347826 196.669565,90.4347826 C191.869565,90.4347826 191.869565,90.4347826 188.530435,87.6173913 C185.086957,84.9043478 185.086957,84.9043478 185.086957,80.9391304 C185.086957,77.0782609 185.086957,77.0782609 188.426087,74.2608696 C191.765217,71.3391304 191.765217,71.3391304 196.669565,70.9217391 C202.721739,70.4 202.721739,70.4 206.373913,69.5652174 C210.031579,68.7743707 210.031579,68.7743707 211.535228,67.6089124 L211.695652,67.4782609 Z M276.734161,67.4782609 L276.734161,77.7043478 C275.795031,83.2347826 275.795031,83.2347826 271.51677,86.7826087 C267.238509,90.4347826 267.238509,90.4347826 261.708075,90.4347826 C256.908075,90.4347826 256.908075,90.4347826 253.568944,87.6173913 C250.125466,84.9043478 250.125466,84.9043478 250.125466,80.9391304 C250.125466,77.0782609 250.125466,77.0782609 253.464596,74.2608696 C256.803727,71.3391304 256.803727,71.3391304 261.708075,70.9217391 C267.760248,70.4 267.760248,70.4 271.412422,69.5652174 C275.070088,68.7743707 275.070088,68.7743707 276.573738,67.6089124 L276.734161,67.4782609 Z M433.360248,49.6347826 C440.873292,49.6347826 440.873292,49.6347826 445.464596,55.1652174 C449.951553,60.5913043 449.951553,60.5913043 449.951553,69.773913 C449.951553,78.6434783 449.951553,78.6434783 445.464596,83.9652174 C440.873292,89.2869565 440.873292,89.2869565 433.360248,89.2869565 C425.742857,89.2869565 425.742857,89.2869565 421.255901,83.9652174 C416.664596,78.6434783 416.664596,78.6434783 416.664596,69.773913 C416.664596,60.5913043 416.664596,60.5913043 421.255901,55.1652174 C425.742857,49.6347826 425.742857,49.6347826 433.360248,49.6347826 Z M482.565217,44.2173913 C489.452174,44.2173913 489.452174,44.2173913 493.521739,49.7478261 C497.695652,55.173913 497.695652,55.173913 497.695652,64.3565217 C497.695652,73.5391304 497.695652,73.5391304 493.521739,79.173913 C489.452174,84.7043478 489.452174,84.7043478 482.565217,84.7043478 C476.095652,84.7043478 476.095652,84.7043478 471.608696,78.7565217 C467.017391,72.8086957 467.017391,72.8086957 467.017391,64.3565217 C467.017391,56.0086957 467.017391,56.0086957 471.608696,50.1652174 C476.095652,44.2173913 476.095652,44.2173913 482.565217,44.2173913 Z M352.281988,49.6347826 C358.334161,49.6347826 358.334161,49.6347826 362.925466,53.8086957 C367.2577,57.9394303 367.2577,57.9394303 367.893465,63.8211239 L367.934161,64.2434783 L367.934161,65.8086957 L336.629814,65.8086957 L336.629814,64.6608696 C337.151553,58.2956522 337.151553,58.2956522 341.742857,53.9130435 C346.229814,49.6347826 346.229814,49.6347826 352.281988,49.6347826 Z M707.5,9.64247168 C705.567003,9.64247168 704,11.2094751 704,13.1424717 C704,15.0754683 705.567003,16.6424717 707.5,16.6424717 C709.432997,16.6424717 711,15.0754683 711,13.1424717 C711,11.2094751 709.432997,9.64247168 707.5,9.64247168 Z" id="Combined-Shape" fill="url(#radialGradient-1)"></path>
        </g>
    </g>
</svg>